<?xml version="1.0" standalone="no"?>
<!DOCTYPE svg PUBLIC "-//W3C//DTD SVG 20010904//EN"
 "http://www.w3.org/TR/2001/REC-SVG-20010904/DTD/svg10.dtd">
<svg version="1.0" xmlns="http://www.w3.org/2000/svg"
 width="80" height="80" viewBox="0 0 300 270"
 preserveAspectRatio="xMidYMid meet">
<metadata>
Created by potrace 1.10, written by Peter Selinger 2001-2011
</metadata>
<g transform="translate(0.000000,286.000000) scale(0.100000,-0.100000)"
fill="#FFFFFF" stroke="none">
<path d="M1600 2777 c0 -38 113 -177 203 -249 l49 -38 -67 0 c-63 0 -70 2
-130 45 -65 47 -202 115 -229 115 -51 0 28 -73 139 -129 l56 -28 -38 -7 c-79
-13 -122 -6 -243 39 -67 25 -144 50 -172 55 -95 18 -268 9 -268 -15 0 -17 81
-59 172 -89 59 -20 97 -26 163 -26 90 0 107 -13 32 -25 -64 -11 -295 -89 -392
-134 -91 -43 -103 -60 -47 -72 53 -11 117 10 197 62 41 27 93 58 114 69 44 22
190 64 197 57 3 -3 -29 -24 -71 -47 -99 -55 -193 -143 -234 -220 -46 -86 -30
-100 62 -54 93 47 166 103 217 167 105 130 123 148 163 169 26 13 69 23 111
26 56 4 66 7 53 17 -10 7 -13 16 -7 25 7 11 14 12 34 2 30 -13 32 -24 11 -42
-8 -7 -15 -10 -15 -6 0 16 -106 -50 -145 -91 -57 -59 -104 -148 -88 -164 9 -9
21 -6 50 12 76 45 117 84 161 152 55 86 84 100 187 94 68 -5 72 -4 68 14 -6
23 19 26 37 4 13 -16 4 -38 -13 -32 -16 6 -93 -34 -142 -73 -67 -53 -157 -202
-140 -231 19 -29 105 18 170 93 19 23 52 71 71 105 48 87 67 97 159 90 41 -4
80 -8 87 -9 7 -2 13 3 13 11 0 9 -30 21 -90 35 l-89 21 -43 61 c-94 136 -313
304 -313 241z m117 -73 c59 -42 193 -185 193 -206 0 -21 -89 42 -162 114 -68
68 -120 138 -102 138 4 0 35 -21 71 -46z m-174 -125 c52 -27 100 -60 94 -66
-3 -2 -27 9 -54 24 -98 55 -128 86 -40 42z m-318 -40 c84 -21 191 -64 179 -71
-14 -8 -256 9 -301 21 -23 6 -67 24 -100 39 l-58 27 40 6 c55 9 157 0 240 -22z
m218 -85 c12 -12 -43 -45 -68 -42 -35 4 -31 21 8 35 38 14 51 15 60 7z m190
-65 c-39 -69 -162 -183 -178 -167 -7 7 60 100 91 129 37 33 87 68 97 69 5 0 0
-14 -10 -31z m236 -26 c-56 -95 -112 -163 -156 -192 -26 -18 -49 -27 -51 -22
-4 12 33 87 65 129 26 34 137 122 155 122 5 0 0 -17 -13 -37z m-489 21 c0 -10
-60 -85 -109 -137 -64 -68 -241 -185 -241 -160 0 10 62 100 92 134 36 41 107
93 178 133 65 36 80 41 80 30z m-374 -89 c-51 -36 -102 -55 -146 -55 -24 1
-24 1 -5 12 37 22 170 78 185 78 8 0 -7 -16 -34 -35z"/>
<path d="M1583 2654 c-3 -8 -1 -20 6 -27 14 -14 47 15 37 32 -10 16 -36 13
-43 -5z"/>
<path d="M1284 2635 c-10 -24 12 -42 34 -29 24 16 21 38 -6 42 -13 2 -25 -3
-28 -13z"/>
<path d="M507 2426 c-11 -28 -8 -1234 3 -1241 7 -4 10 191 10 614 l0 621 155
0 c90 0 155 4 155 9 0 6 -67 10 -159 10 -124 0 -160 -3 -164 -13z"/>
<path d="M2250 2429 c0 -5 48 -9 110 -9 l110 0 0 -612 c0 -337 3 -608 8 -603
4 6 6 285 4 622 l-2 611 -115 0 c-66 1 -115 -3 -115 -9z"/>
<path d="M883 2404 c-3 -8 -1 -20 5 -26 16 -16 47 -5 50 20 3 18 -1 22 -23 22
-14 0 -28 -7 -32 -16z"/>
<path d="M1313 2174 c-3 -8 -1 -20 5 -26 16 -16 42 -2 42 22 0 24 -38 28 -47
4z"/>
<path d="M1537 2164 c-4 -4 -7 -16 -7 -26 0 -14 6 -19 23 -16 14 2 22 10 22
23 0 20 -25 32 -38 19z"/>
<path d="M917 2143 c-4 -3 -7 -15 -7 -25 0 -23 38 -25 47 -2 8 21 -24 43 -40
27z"/>
<path d="M1021 1578 c-49 -126 -116 -266 -132 -280 -21 -18 -20 -18 32 -18 46
0 51 2 35 13 -17 12 -17 18 -7 50 l13 37 63 0 c62 0 63 -1 74 -31 15 -44 14
-57 -6 -62 -10 -3 14 -5 52 -5 55 -1 65 2 49 10 -15 7 -42 56 -85 159 -35 82
-67 149 -72 149 -4 0 -11 -10 -16 -22z m34 -123 l23 -55 -49 0 c-54 0 -55 2
-35 51 7 19 16 43 20 53 8 25 14 18 41 -49z"/>
<path d="M1427 1588 c-25 -20 -35 -58 -25 -97 8 -27 7 -36 -3 -40 -8 -2 -29
-19 -46 -37 -86 -84 11 -187 115 -124 l34 21 32 -21 c19 -11 43 -20 55 -20 23
0 78 47 67 57 -4 4 -12 1 -18 -5 -18 -18 -53 -15 -78 6 l-23 19 34 56 c19 31
43 60 54 66 16 7 7 10 -40 10 -45 0 -56 -2 -42 -10 9 -5 17 -17 17 -25 0 -19
-28 -74 -38 -74 -4 0 -19 20 -34 45 l-27 44 30 18 c65 38 50 123 -21 123 -14
0 -34 -6 -43 -12z m73 -28 c12 -22 3 -47 -25 -70 -14 -12 -18 -11 -26 1 -10
16 -12 73 -2 82 13 14 43 6 53 -13z m-46 -179 c20 -30 35 -55 34 -56 -13 -11
-50 -25 -64 -25 -51 0 -72 75 -32 117 12 13 22 22 24 20 1 -1 18 -26 38 -56z"/>
<path d="M1895 1586 c-61 -27 -95 -85 -95 -160 0 -48 27 -96 73 -130 34 -25
133 -29 185 -7 31 13 32 15 32 77 0 50 3 64 15 64 8 0 15 5 15 10 0 6 -28 10
-65 10 -70 0 -80 -5 -39 -20 23 -9 25 -14 22 -67 -3 -55 -4 -58 -33 -63 -45
-9 -90 6 -119 41 -22 25 -26 41 -26 90 0 75 20 116 67 136 56 23 113 0 134
-56 14 -35 23 -17 20 37 -3 54 -6 59 -23 45 -8 -6 -22 -7 -33 -2 -31 12 -97
10 -130 -5z"/>
<path d="M670 1193 c0 -41 68 -249 105 -322 56 -112 62 -154 41 -268 -8 -48
-17 -99 -19 -113 l-2 -25 -14 25 c-8 14 -16 66 -19 123 -4 83 -2 100 13 116
22 26 16 52 -17 70 -24 14 -28 14 -47 -3 -19 -18 -20 -17 -31 26 -24 89 -78
185 -131 232 -52 47 -69 55 -69 35 0 -21 41 -152 67 -214 30 -71 125 -247 130
-241 2 2 -22 57 -55 122 -60 119 -117 263 -108 271 7 7 80 -141 127 -259 37
-90 57 -168 44 -168 -7 0 -96 98 -141 156 -36 47 -42 59 -33 76 19 36 -29 66
-59 36 -19 -19 -14 -49 8 -55 20 -5 153 -163 145 -172 -13 -12 -154 120 -190
178 -50 79 -156 213 -172 219 -10 3 -13 -12 -13 -55 0 -46 6 -69 29 -108 37
-64 133 -155 197 -188 134 -68 303 -181 290 -194 -2 -3 -55 26 -118 65 -161
98 -279 164 -285 159 -9 -10 47 -107 84 -145 46 -48 124 -78 245 -96 97 -15
124 -26 61 -26 -22 0 -67 -3 -100 -6 -53 -6 -62 -4 -81 16 -27 29 -56 23 -60
-12 l-3 -27 68 4 c37 2 98 7 136 11 93 9 87 -10 -10 -32 -98 -22 -156 -22
-370 1 -95 10 -176 16 -180 12 -11 -12 47 -65 70 -65 12 1 60 -9 107 -22 69
-18 101 -22 175 -17 49 3 109 12 133 21 24 8 40 11 37 6 -3 -5 -44 -22 -91
-36 -114 -36 -201 -31 -293 15 -34 18 -65 30 -68 27 -9 -9 115 -66 167 -77 97
-21 223 15 358 103 l63 41 33 -39 c31 -35 36 -38 50 -24 15 14 13 20 -15 58
-39 53 -39 81 1 171 91 208 93 300 8 440 -44 74 -198 208 -198 174z m109 -133
c37 -69 61 -165 60 -240 -1 -41 -3 -49 -8 -30 -5 14 -24 57 -44 96 -29 57 -97
256 -97 282 0 17 63 -59 89 -108z m95 -84 c53 -112 53 -201 0 -326 -34 -80
-45 -95 -33 -44 16 73 22 218 10 294 -7 47 -24 101 -46 145 l-34 70 39 -44
c22 -23 50 -66 64 -95z m-259 -36 c34 -67 77 -195 90 -265 10 -57 2 -43 -40
70 -49 132 -100 241 -130 281 -36 47 -31 53 11 13 20 -18 51 -63 69 -99z
m-253 -75 c55 -81 57 -87 24 -55 -41 38 -136 174 -136 193 1 16 39 -31 112
-138z m37 -87 c53 -54 94 -98 92 -98 -2 0 -26 14 -52 31 -94 60 -198 194 -199
254 0 12 12 -1 32 -35 17 -30 74 -99 127 -152z m326 -60 c9 -30 16 -122 8
-115 -12 12 -31 127 -21 127 5 0 10 -6 13 -12z m-195 -119 c94 -57 125 -79
102 -75 -54 9 -138 56 -194 107 -29 26 -51 48 -48 49 3 0 66 -36 140 -81z m0
-54 c25 -12 69 -28 98 -35 68 -16 76 -30 10 -18 -89 16 -161 48 -200 90 -62
63 -67 88 -8 35 30 -27 75 -59 100 -72z m200 29 c0 -18 -8 -18 -26 1 -19 19
-8 41 12 24 8 -6 14 -18 14 -25z m-254 -200 c76 -5 127 -3 163 6 72 17 74 7 4
-21 -72 -27 -217 -37 -305 -19 -71 14 -168 48 -168 59 0 4 44 2 98 -5 53 -8
147 -16 208 -20z"/>
<path d="M2244 1149 c-108 -97 -153 -168 -175 -268 -16 -77 -5 -136 53 -271
55 -130 56 -147 12 -199 -26 -31 -29 -61 -7 -68 12 -4 44 23 60 52 9 16 19 12
94 -34 115 -70 185 -93 284 -94 73 -1 87 2 155 36 80 39 160 101 147 113 -4 4
-92 -1 -195 -12 -103 -10 -211 -18 -240 -17 -70 2 -204 32 -197 44 7 11 202 0
227 -12 25 -13 51 16 38 42 -14 25 -44 24 -61 -1 -13 -20 -20 -20 -112 -14
-106 8 -110 17 -12 28 33 4 95 18 137 32 64 21 84 33 117 70 38 44 87 132 77
141 -4 5 -316 -175 -316 -183 0 -11 26 2 132 64 63 38 121 72 129 76 8 4 -11
-16 -41 -45 -61 -58 -146 -102 -200 -104 -19 -1 -50 -9 -68 -19 -19 -10 -36
-15 -39 -13 -7 8 97 83 183 132 43 25 74 45 69 45 -5 0 31 39 81 88 49 48 107
114 129 147 55 84 57 85 41 32 -24 -82 -131 -198 -224 -247 -13 -6 -21 -14
-19 -17 11 -10 138 81 180 130 59 70 76 105 84 177 5 51 3 60 -10 60 -17 0
-127 -136 -171 -211 -32 -57 -172 -189 -199 -189 -4 0 23 38 60 85 40 51 74
85 85 85 22 0 25 42 3 60 -27 22 -50 8 -50 -31 0 -40 -21 -71 -124 -187 -72
-81 -107 -108 -96 -73 3 12 2 21 -3 21 -11 0 -3 111 9 124 15 17 17 2 7 -58
-8 -47 -8 -60 3 -67 9 -5 17 -3 21 6 9 15 0 47 -12 40 -13 -8 17 117 49 204
36 99 68 155 110 195 35 33 40 27 12 -12 -47 -67 -167 -350 -159 -374 2 -6 21
34 42 88 51 129 129 291 134 276 5 -15 -60 -177 -112 -277 -22 -44 -44 -89
-48 -100 -18 -47 24 23 79 130 54 105 126 301 116 318 -7 11 -61 -24 -94 -61
-33 -37 -80 -127 -98 -187 -7 -22 -14 -46 -17 -53 -3 -11 -7 -10 -20 2 -21 21
-40 20 -64 -4 -25 -25 -25 -38 1 -66 21 -22 21 -27 11 -123 -10 -99 -16 -121
-30 -121 -11 0 -37 185 -35 243 1 35 15 76 52 150 41 85 101 272 101 316 0 21
-21 10 -76 -40z m31 -85 c-15 -49 -45 -127 -67 -174 -22 -47 -44 -96 -49 -110
-6 -20 -7 -14 -8 25 -1 65 23 176 49 231 26 53 93 141 97 128 2 -6 -8 -50 -22
-100z m-84 -15 c-16 -30 -35 -79 -42 -109 -15 -63 -15 -241 -1 -315 6 -27 9
-51 7 -53 -1 -2 -19 39 -40 90 -34 85 -37 99 -33 168 3 47 13 93 27 125 22 50
99 160 107 152 2 -2 -9 -28 -25 -58z m505 -127 c-54 -77 -116 -150 -116 -135
0 9 89 138 134 194 41 51 28 6 -18 -59z m-110 -306 c-51 -68 -118 -102 -239
-125 -67 -12 -46 2 33 23 79 21 132 51 184 105 47 48 60 46 22 -3z m224 -226
c-8 -6 -44 -20 -80 -32 -54 -19 -86 -23 -190 -23 -107 0 -134 3 -188 24 -74
28 -75 38 -1 21 57 -14 210 -8 374 14 93 12 110 11 85 -4z m-35 -44 c-11 -7
-49 -26 -85 -41 -58 -24 -74 -27 -145 -22 -69 4 -204 41 -193 53 2 2 31 -4 63
-13 78 -20 227 -13 305 16 66 24 81 26 55 7z"/>
<path d="M1500 470 l-575 -5 583 -3 c387 -1 581 1 577 8 -3 6 -7 9 -8 8 -1 -2
-261 -5 -577 -8z"/>
</g>
</svg>
